<?xml version="1.0" encoding="UTF-8"?>
<svg viewBox="0 0 737 178" version="1.1" xmlns="http://www.w3.org/2000/svg" xmlns:xlink="http://www.w3.org/1999/xlink">
    <!-- Generator: Sketch 54.1 (76490) - https://sketchapp.com -->
    <title>Combined Shape</title>
    <desc>Created with Sketch.</desc>
    <g id="Symbols" stroke="none" stroke-width="1" fill="none" fill-rule="evenodd">
        <path d="M395.622899,0.003 C415.143899,0.003 420.917899,14.855 415.104899,27.65 C408.623899,42.517 362.629899,131.391 351.750899,155.984 C346.759899,167.837 343.250899,177.736 324.143899,177.736 L20.8798992,177.736 C8.0688992,177.736 -5.4721008,165.965 2.2658992,148.271 C12.3008992,125.323 61.5198992,26.637 65.4068992,19.044 C72.1128992,5.943 79.5358992,-2.84217094e-14 96.2878992,-2.84217094e-14 C113.040899,-2.84217094e-14 376.820899,0.003 395.622899,0.003 Z M128.430899,91.496 C129.703899,88.783 129.816899,86.429 129.049899,83.505 L116.726899,39.792 L116.689899,39.803 C115.625899,36.334 113.473899,33.312 109.857899,31.867 C102.325899,28.859 93.0688992,31.995 89.6468992,39.079 L44.1398992,131.228 C43.9338992,131.508 43.7378992,132.086 43.5538992,132.418 C41.8178992,135.537 41.2088992,140.465 45.2058992,144.463 C49.1668992,148.424 59.0208992,148.101 62.6318992,140.406 L99.5958992,63.224 C99.8878992,62.528 100.033899,62.247 100.572899,62.247 C101.112899,62.247 101.387899,62.684 101.550899,63.224 L108.609899,91.513 L108.607899,91.511 C108.982899,92.908 109.642899,94.249 110.693899,95.407 C111.405899,96.191 112.531899,96.959 113.628899,97.403 L113.634899,97.41 C113.661899,97.42 113.785899,97.465 113.818899,97.478 C118.487899,99.177 125.558899,97.616 128.430899,91.496 Z M137.104899,111.505 C136.686899,109.961 135.827899,108.467 134.543899,107.231 C132.774899,105.532 130.547899,104.654 128.404899,104.62 L119.986899,104.635 L97.9838992,104.674 C94.5418992,104.648 88.7148992,104.036 85.3438992,110.1 C83.6118992,113.215 82.4868992,118.851 86.8398992,123.206 C88.2128992,124.579 90.3908992,125.278 92.7488992,125.321 L116.912899,125.323 L122.009899,140.723 C122.416899,141.919 123.045899,143.058 123.958899,144.063 C127.845899,148.341 138.925899,147.899 142.658899,139.958 C143.905899,137.303 143.770899,134.404 143.075899,131.902 L137.104899,111.505 Z M253.124899,59.438 C255.469899,54.153 253.634899,50.613 250.307899,47.285 C244.422899,41.229 238.038899,36.585 230.522899,33.327 C208.269899,23.68 168.274899,31.736 150.461899,64.604 C132.417899,97.896 145.963899,132.785 175.956899,144.505 C200.193899,153.977 226.089899,145.873 243.861899,128.435 C248.924899,123.692 248.233899,116.03 242.630899,112.636 C238.041899,109.856 232.577899,111.866 228.915899,114.954 L228.921899,114.961 C217.418899,126.147 200.942899,131.504 185.752899,125.26 C167.303899,117.677 158.407899,93.762 169.818899,73.439 C181.663899,52.337 205.632899,46.167 220.653899,52.683 C226.077899,55.036 230.873899,58.563 234.614899,62.925 L235.216899,63.568 C240.953899,69.171 250.090899,66.28 253.124899,59.438 Z M340.412899,50.698 C343.170899,44.467 340.612899,40.353 335.245899,37.444 C335.245899,37.444 321.396899,29.013 304.635899,29.363 C298.406899,29.494 292.603899,30.723 287.358899,32.306 C277.821899,35.184 270.417899,42.439 266.558899,47.231 L266.594899,47.211 C262.804899,52.481 260.520899,58.784 260.520899,65.132 C260.520899,80.954 271.951899,91.084 289.906899,94.941 C289.906899,94.941 302.460899,98.167 305.125899,98.938 C305.125899,98.938 310.526899,100.411 313.751899,104.129 C316.978899,107.846 317.048899,112.544 315.926899,115 C314.804899,117.454 311.437899,123.136 305.685899,125.451 C299.934899,127.765 292.220899,128.396 287.310899,127.625 C284.849899,127.238 274.170899,124.432 270.682899,121.3 C263.729899,115.056 255.757899,118.692 252.728899,125.536 C249.968899,131.768 252.528899,135.881 257.895899,138.791 C257.895899,138.791 268.647899,146.799 284.785899,147.964 C291.588899,148.455 297.733899,148.413 308.070899,145.721 C317.901899,143.161 326.848899,136.69 332.466899,128.746 C336.548899,122.974 338.547899,117.832 338.662899,109.818 C338.859899,95.898 331.356899,87.663 321.083899,82.545 C316.984899,80.503 312.364899,79.016 307.176899,77.815 L307.104899,77.815 C302.974899,76.862 294.190899,74.768 289.595899,72.802 C285.268899,70.95 283.166899,68.574 282.571899,65.036 C282.011899,61.71 283.688899,58.027 287.195899,55.01 C290.702899,51.995 295.102899,50.034 302.550899,49.891 C305.198899,49.842 308.319899,50.179 311.043899,50.781 C317.316899,52.169 319.998899,53.517 321.885899,54.67 C323.771899,55.822 324.384899,56.443 325.350899,56.971 C331.353899,60.25 337.802899,56.593 340.412899,50.698 Z M385.320899,28.608 C385.320899,24.182 381.719899,20.58 377.293899,20.58 C372.866899,20.58 369.265899,24.181 369.265899,28.608 C369.265899,33.034 372.866899,36.635 377.293899,36.635 C381.719899,36.636 385.320899,33.034 385.320899,28.608 Z M384.678899,28.608 C384.678899,32.681 381.365899,35.994 377.293899,35.994 C373.220899,35.994 369.907899,32.681 369.907899,28.608 C369.907899,24.535 373.220899,21.222 377.293899,21.222 C381.365899,21.222 384.678899,24.535 384.678899,28.608 Z M381.758899,26.638 C381.803899,24.551 379.763899,23.44 379.128899,23.44 C378.493899,23.44 373.718899,23.394 373.718899,23.394 L373.718899,33.683 L375.504899,33.683 L375.504899,29.918 L377.813899,29.918 L379.667899,33.683 L381.723899,33.684 L379.617899,29.705 C379.617899,29.705 381.712899,28.723 381.758899,26.638 Z M379.836899,26.604 C379.802899,27.817 378.824899,28.155 378.555899,28.155 L375.436899,28.155 L375.436899,25.103 L378.454899,25.103 C378.454899,25.103 379.869899,25.39 379.836899,26.604 Z M243.808899,128.483 L242.983899,129.182 L244.395899,127.869 L243.861899,128.435 C243.843899,128.452 243.826899,128.468 243.808899,128.483 Z M459.900699,145.3833 C459.900699,145.8803 459.790699,145.9913 459.403699,145.9913 L457.580699,145.9913 C457.249699,145.9913 457.138699,145.8803 457.138699,145.4383 L457.138699,140.9093 C455.537699,144.1133 451.394699,146.5433 446.534699,146.5433 C438.635699,146.5433 433.057699,140.5783 433.057699,132.2933 C433.057699,123.4553 438.193699,117.5463 446.257699,117.5463 C451.063699,117.5463 454.929699,119.8103 457.138699,123.2353 L457.138699,118.5953 C457.138699,118.1533 457.249699,118.0983 457.525699,118.0983 L459.458699,118.0983 C459.790699,118.0983 459.900699,118.2083 459.900699,118.4853 L459.900699,145.3833 Z M457.304699,132.0723 C457.304699,124.6713 452.278699,120.0863 446.534699,120.0863 C440.403699,120.0863 435.929699,124.2843 435.929699,132.0723 C435.929699,138.7553 440.734699,143.9473 446.534699,143.9473 C453.438699,143.9473 457.304699,138.9763 457.304699,132.0723 Z M481.054699,144.8313 C481.164699,145.3283 481.164699,145.3283 480.722699,145.4933 C478.955699,146.2673 477.684699,146.5433 476.248699,146.5433 C472.990699,146.5433 470.117699,144.0573 470.117699,139.9153 L470.117699,120.8043 L466.693699,120.8043 C466.417699,120.8043 466.306699,120.7493 466.306699,120.2523 L466.306699,118.5403 C466.306699,118.3193 466.417699,118.0983 466.638699,118.0983 L470.117699,118.0983 L470.117699,111.5253 C470.117699,111.0833 470.173699,110.9733 470.559699,110.9733 L472.327699,110.9733 C472.879699,110.9733 472.934699,111.0283 472.934699,111.6363 L472.934699,118.0983 L478.402699,118.0983 C478.789699,118.0983 478.955699,118.0983 478.955699,118.3193 L478.955699,120.3073 C478.955699,120.6393 478.568699,120.8043 478.347699,120.8043 L472.934699,120.8043 L472.934699,139.4733 C472.934699,142.8423 474.757699,143.7813 476.580699,143.7813 C478.016699,143.7813 479.452699,143.2293 480.115699,142.7873 C480.336699,142.6213 480.501699,142.8423 480.612699,143.2843 C480.722699,143.6713 480.943699,144.3893 481.054699,144.8313 Z M523.140699,118.6503 C516.788699,135.5523 513.806699,143.0083 509.166699,154.7733 C509.001699,155.1593 508.890699,155.1593 508.724699,155.1593 L506.626699,155.1593 C506.184699,155.1593 506.128699,155.0493 506.294699,154.6073 C508.614699,149.0283 510.768699,143.6713 511.044699,143.0633 C510.602699,142.1793 504.251699,129.1453 499.224699,118.5953 C499.003699,118.1533 499.114699,118.0983 499.611699,118.0983 L501.931699,118.0983 C502.207699,118.0983 502.262699,118.2083 502.428699,118.5403 C505.852699,125.8863 511.210699,137.4853 512.480699,139.8043 C513.198699,137.5953 516.899699,127.3773 520.158699,118.5403 C520.268699,118.1533 520.379699,118.0983 520.765699,118.0983 L522.919699,118.0983 C523.195699,118.0983 523.251699,118.2643 523.140699,118.6503 Z M557.108699,132.1273 C557.108699,140.8543 551.032699,146.9303 542.361699,146.9303 C533.855699,146.9303 527.614699,140.9093 527.614699,132.1273 C527.614699,123.5663 533.579699,117.2693 542.361699,117.2693 C551.032699,117.2693 557.108699,123.2353 557.108699,132.1273 Z M554.181699,132.1273 C554.181699,125.3333 549.155699,119.8653 542.361699,119.8653 C535.622699,119.8653 530.541699,125.0573 530.541699,132.1273 C530.541699,138.8663 535.622699,144.3343 542.361699,144.3343 C549.210699,144.3343 554.181699,139.1423 554.181699,132.1273 Z M587.320699,145.4933 C587.320699,145.9353 587.265699,145.9913 586.989699,145.9913 L585.000699,145.9913 C584.558699,145.9913 584.503699,145.9913 584.503699,145.3283 L584.503699,141.1303 C583.012699,144.1683 578.704699,146.5433 574.727699,146.5433 C569.038699,146.5433 564.840699,143.0083 564.840699,136.2143 L564.840699,118.7053 C564.840699,118.1533 564.895699,118.0983 565.227699,118.0983 L567.215699,118.0983 C567.602699,118.0983 567.657699,118.0983 567.657699,118.7053 L567.657699,135.7173 C567.657699,140.4673 570.308699,143.8363 575.058699,143.8363 C579.366699,143.8363 583.564699,140.3573 584.503699,135.7723 L584.503699,118.6503 C584.503699,118.1533 584.558699,118.0983 584.835699,118.0983 L586.823699,118.0983 C587.320699,118.0983 587.320699,118.0983 587.320699,118.7053 L587.320699,145.4933 Z M614.660699,123.5663 C614.273699,124.0633 613.721699,124.7263 613.113699,124.9473 C612.837699,125.0573 612.395699,125.0573 612.119699,125.0573 C611.512699,122.1853 610.241699,120.1973 606.596699,120.1973 C603.006699,120.1973 599.968699,122.9583 599.084699,127.4323 L599.084699,145.4383 C599.084699,145.8803 598.974699,145.9913 598.697699,145.9913 L596.599699,145.9913 C596.322699,145.9913 596.212699,145.8803 596.212699,145.4933 L596.212699,118.5403 C596.212699,118.0983 596.212699,118.0983 596.654699,118.0983 L598.642699,118.0983 C598.918699,118.0983 599.029699,118.1533 599.029699,118.5403 L599.029699,122.2403 C600.631699,119.1473 603.282699,117.5463 607.093699,117.5463 C611.125699,117.5463 614.107699,120.1973 614.660699,123.5663 Z M655.310699,138.5343 C655.310699,144.2233 651.223699,146.9303 644.982699,146.9303 C639.514699,146.9303 635.813699,144.4993 634.046699,140.4123 C633.770699,139.8043 633.880699,139.6943 634.267699,139.5283 L635.868699,138.8663 C636.476699,138.5893 636.531699,138.5893 636.752699,139.1423 C638.078699,142.2353 640.784699,144.3343 645.037699,144.3343 C649.898699,144.3343 652.383699,142.4563 652.383699,139.1973 C652.383699,136.6563 651.499699,134.5023 644.540699,133.0663 C638.022699,131.7403 635.040699,129.9183 635.040699,124.7263 C635.040699,120.2523 638.354699,117.1593 644.871699,117.1593 C650.395699,117.1593 653.432699,119.9763 654.813699,123.4003 C654.979699,123.8423 654.979699,124.0083 654.371699,124.2843 L652.991699,124.9473 C652.549699,125.1683 652.383699,124.8923 652.162699,124.3943 C651.002699,121.6333 648.682699,119.7553 644.761699,119.7553 C639.624699,119.7553 637.912699,122.0193 637.912699,124.6713 C637.912699,127.5983 639.956699,129.1453 645.313699,130.1943 C652.494699,131.5753 655.310699,134.5573 655.310699,138.5343 Z M666.798699,113.9003 C666.798699,114.2873 666.688699,114.3423 666.301699,114.3423 L663.926699,114.3423 C663.650699,114.3423 663.595699,114.2323 663.595699,113.8453 L663.595699,111.6363 C663.595699,111.3043 663.705699,111.1943 663.981699,111.1943 L666.246699,111.1943 C666.688699,111.1943 666.798699,111.2493 666.798699,111.6363 L666.798699,113.9003 Z M666.633699,145.4383 C666.633699,145.9353 666.577699,145.9913 666.136699,145.9913 L664.313699,145.9913 C663.816699,145.9913 663.760699,145.9913 663.760699,145.2733 L663.760699,118.5403 C663.760699,118.2083 663.871699,118.0983 664.202699,118.0983 L666.080699,118.0983 C666.577699,118.0983 666.633699,118.1533 666.633699,118.5403 L666.633699,145.4383 Z M701.815699,145.3833 C701.815699,145.8253 701.760699,145.9913 701.318699,145.9913 L699.440699,145.9913 C699.164699,145.9913 698.999699,145.8803 698.999699,145.4383 L698.999699,141.0753 C697.563699,143.8923 693.254699,146.5433 688.283699,146.5433 C680.496699,146.5433 674.917699,140.5783 674.917699,132.2933 C674.917699,123.5113 680.109699,117.5463 688.394699,117.5463 C693.199699,117.5463 696.789699,119.9213 698.999699,123.2903 L698.999699,108.3223 C698.999699,107.8803 699.109699,107.7693 699.440699,107.7693 L701.374699,107.7693 C701.760699,107.7693 701.815699,107.8803 701.815699,108.2113 L701.815699,145.3833 Z M699.109699,132.0723 C699.109699,124.7263 694.138699,120.0863 688.283699,120.0863 C682.263699,120.0863 677.789699,124.3393 677.789699,132.0723 C677.789699,138.8663 682.594699,143.8923 688.283699,143.8923 C695.298699,143.8923 699.109699,138.9763 699.109699,132.0723 Z M736.833699,130.2493 C736.833699,131.6303 736.778699,132.0723 736.281699,132.7903 C736.115699,133.0113 735.784699,133.0663 735.397699,133.0663 L712.475699,133.0663 C712.696699,139.0863 717.060699,144.3343 724.350699,144.3343 C727.830699,144.3343 730.481699,142.5663 731.752699,141.3513 C731.862699,141.2413 732.083699,141.2963 732.194699,141.4063 C732.801699,142.0693 732.967699,142.2353 733.519699,143.0633 C733.630699,143.2293 733.850699,143.3953 733.630699,143.5603 C731.089699,145.6043 728.217699,146.9303 724.240699,146.9303 C715.126699,146.9303 709.548699,140.9093 709.548699,132.1273 C709.548699,123.5663 715.071699,117.2693 723.853699,117.2693 C732.414699,117.2693 736.833699,124.5603 736.833699,130.2493 Z M733.961699,130.4153 C733.685699,124.9473 729.984699,119.8103 723.798699,119.8103 C717.722699,119.8103 712.917699,124.6153 712.530699,130.4153 L733.961699,130.4153 Z M460.453099,69.5768 C460.398099,70.0738 460.453099,70.1288 460.011099,70.1288 L445.264099,70.0188 L445.264099,77.5308 L458.354099,77.3648 C458.851099,77.3648 459.072099,77.5858 459.072099,78.0278 C459.183099,80.3468 459.238099,82.8328 459.072099,85.4838 C459.017099,85.9808 458.796099,86.0918 458.299099,86.0918 L445.264099,85.9808 L445.264099,98.1878 C445.264099,98.7948 445.209099,98.9608 444.767099,98.9608 L435.764099,98.9608 C435.432099,98.9608 435.322099,99.0158 435.322099,98.1878 L435.322099,62.2308 C435.322099,61.5678 435.377099,61.5128 435.764099,61.5128 L460.011099,61.5128 C460.453099,61.5128 460.398099,61.6228 460.453099,62.0648 C460.619099,64.4398 460.674099,67.4228 460.453099,69.5768 Z M491.273099,98.2978 C491.273099,98.9608 491.273099,98.9608 490.886099,98.9608 L482.877099,98.9608 C482.436099,98.9608 482.159099,98.9058 482.159099,98.1318 L482.159099,95.3708 C480.999099,98.5738 477.796099,99.7888 473.543099,99.7888 C467.799099,99.7888 464.927099,96.5858 464.982099,90.6758 L465.148099,72.0068 C465.148099,71.2338 465.258099,71.0678 465.700099,71.0678 L474.040099,71.0678 C474.427099,71.0678 474.537099,71.2338 474.537099,71.8418 L474.372099,88.3558 C474.372099,90.8418 475.973099,92.0018 477.851099,92.0018 C480.061099,92.0018 481.331099,90.8418 481.883099,89.3498 L481.883099,71.6758 C481.883099,71.1788 481.938099,71.0678 482.270099,71.0678 L490.831099,71.0678 C491.218099,71.0678 491.273099,71.0678 491.273099,71.8418 L491.273099,98.2978 Z M515.133099,97.3038 C515.188099,97.7458 514.967099,97.9668 514.636099,98.1318 C513.365099,98.7398 511.377099,99.6788 509.002099,99.6788 C499.668099,99.6788 499.281099,93.3818 499.281099,87.8038 L499.281099,78.1378 L497.016099,78.1378 C496.630099,78.1378 496.409099,78.1378 496.409099,77.5308 L496.409099,71.7308 C496.409099,71.4548 496.464099,71.0678 496.851099,71.0678 L499.281099,71.0678 L499.447099,64.1638 C499.447099,63.6118 499.502099,63.3908 499.889099,63.3908 L507.732099,63.3908 C508.505099,63.3908 508.781099,63.9978 508.781099,64.3298 L508.671099,71.0678 L513.365099,71.0678 C513.752099,71.0678 513.918099,71.2338 513.918099,71.5098 L513.918099,77.4198 C513.918099,77.9718 513.752099,78.1928 513.310099,78.1928 C512.205099,78.1928 509.941099,78.1378 508.671099,78.1378 L508.671099,88.3558 C508.671099,90.7868 510.383099,92.0018 513.255099,91.3938 C513.918099,91.2278 514.194099,91.4488 514.304099,92.0568 C514.415099,92.6638 515.022099,96.5308 515.133099,97.3038 Z M545.731099,98.2978 C545.731099,98.9608 545.731099,98.9608 545.345099,98.9608 L537.336099,98.9608 C536.894099,98.9608 536.618099,98.9058 536.618099,98.1318 L536.618099,95.3708 C535.458099,98.5738 532.254099,99.7888 528.001099,99.7888 C522.257099,99.7888 519.385099,96.5858 519.440099,90.6758 L519.606099,72.0068 C519.606099,71.2338 519.716099,71.0678 520.158099,71.0678 L528.498099,71.0678 C528.885099,71.0678 528.996099,71.2338 528.996099,71.8418 L528.830099,88.3558 C528.830099,90.8418 530.432099,92.0018 532.310099,92.0018 C534.519099,92.0018 535.789099,90.8418 536.342099,89.3498 L536.342099,71.6758 C536.342099,71.1788 536.397099,71.0678 536.728099,71.0678 L545.289099,71.0678 C545.676099,71.0678 545.731099,71.0678 545.731099,71.8418 L545.731099,98.2978 Z M575.832099,76.9228 C574.673099,78.0828 570.751099,82.1698 570.088099,82.7778 C569.812099,83.0538 569.260099,83.1088 568.707099,83.1088 C568.707099,80.6238 567.658099,79.2978 565.670099,79.2978 C563.957099,79.2978 563.074099,80.4028 562.411099,81.3968 L562.411099,98.3528 C562.411099,98.8508 562.300099,98.9608 561.969099,98.9608 L553.463099,98.9608 C553.076099,98.9608 553.021099,98.9608 553.021099,98.1878 L553.021099,71.7308 C553.021099,71.0678 553.021099,71.0678 553.463099,71.0678 L561.693099,71.0678 C562.079099,71.0678 562.135099,71.0678 562.135099,71.7308 L562.135099,74.4378 C563.295099,71.6758 566.332099,70.2398 568.763099,70.2398 C572.850099,70.2398 575.722099,72.5038 575.832099,76.9228 Z M605.327099,82.9428 C605.327099,84.8768 605.216099,85.7598 604.995099,86.6988 C604.885099,87.2518 604.719099,87.3618 603.891099,87.3618 L587.376099,87.3618 C587.431099,90.3448 589.751099,92.2228 593.010099,92.2228 C595.606099,92.2228 597.373099,90.5658 598.312099,89.4608 C598.478099,89.2398 598.809099,89.3498 599.085099,89.7368 C600.245099,91.3388 601.792099,93.5478 602.896099,95.2598 C603.228099,95.7568 603.062099,96.1438 602.620099,96.5308 C600.908099,98.0218 597.097099,99.7888 592.844099,99.7888 C584.449099,99.7888 578.318099,94.2658 578.318099,84.8768 C578.318099,76.4808 583.896099,70.3498 592.844099,70.3498 C599.638099,70.3498 605.327099,75.1558 605.327099,82.9428 Z M596.710099,82.5018 C596.489099,79.5738 594.832099,77.8068 592.016099,77.8068 C588.978099,77.8068 587.652099,80.1818 587.376099,82.5018 L596.710099,82.5018 Z" id="Combined-Shape" fill="#FFFFFF"></path>
    </g>
</svg>
